<?xml version="1.0" encoding="UTF-8" standalone="no"?>
<!DOCTYPE svg PUBLIC "-//W3C//DTD SVG 1.1//EN"
 "http://www.w3.org/Graphics/SVG/1.1/DTD/svg11.dtd">
<!-- Generated by graphviz version 2.40.1 (20161225.0304)
 -->
<!-- Title: dependencies Pages: 1 -->
<svg width="429pt" height="188pt"
 viewBox="0.00 0.00 429.42 188.00" xmlns="http://www.w3.org/2000/svg" xmlns:xlink="http://www.w3.org/1999/xlink">
<g id="graph0" class="graph" transform="scale(1 1) rotate(0) translate(4 184)">
<title>dependencies</title>
<polygon fill="#ffffff" stroke="transparent" points="-4,4 -4,-184 425.4216,-184 425.4216,4 -4,4"/>
<!-- N0 -->
<g id="node1" class="node">
<title>N0</title>
<ellipse fill="none" stroke="#000000" cx="146.237" cy="-162" rx="87.1846" ry="18"/>
<text text-anchor="middle" x="146.237" y="-158.3" font-family="Times,serif" font-size="14.00" fill="#000000">cargo&#45;patch&#45;test</text>
</g>
<!-- N1 -->
<g id="node2" class="node">
<title>N1</title>
<ellipse fill="none" stroke="#000000" cx="146.237" cy="-18" rx="146.4744" ry="18"/>
<text text-anchor="middle" x="146.237" y="-14.3" font-family="Times,serif" font-size="14.00" fill="#000000">cargo&#45;patch&#45;test&#45;dependency</text>
</g>
<!-- N0&#45;&gt;N1 -->
<g id="edge1" class="edge">
<title>N0&#45;&gt;N1</title>
<path fill="none" stroke="#000000" d="M106.1856,-145.9171C90.1202,-137.2435 73.2929,-124.8067 64.237,-108 56.6475,-93.9146 56.6475,-86.0854 64.237,-72 71.2664,-58.9541 82.9784,-48.5413 95.3818,-40.4777"/>
<polygon fill="#000000" stroke="#000000" points="97.2709,-43.4257 104.0301,-35.2671 93.6584,-37.4299 97.2709,-43.4257"/>
</g>
<!-- N2 -->
<g id="node3" class="node">
<title>N2</title>
<ellipse fill="none" stroke="#000000" cx="247.237" cy="-90" rx="174.3693" ry="18"/>
<text text-anchor="middle" x="247.237" y="-86.3" font-family="Times,serif" font-size="14.00" fill="#000000">cargo&#45;patch&#45;test&#45;other&#45;dependency</text>
</g>
<!-- N0&#45;&gt;N2 -->
<g id="edge2" class="edge">
<title>N0&#45;&gt;N2</title>
<path fill="none" stroke="#000000" d="M170.6863,-144.5708C183.5466,-135.4031 199.5108,-124.0227 213.5275,-114.0305"/>
<polygon fill="#000000" stroke="#000000" points="215.847,-116.6754 221.9581,-108.0206 211.7837,-110.9754 215.847,-116.6754"/>
</g>
<!-- N2&#45;&gt;N1 -->
<g id="edge3" class="edge">
<title>N2&#45;&gt;N1</title>
<path fill="none" stroke="#000000" d="M222.011,-72.0171C209.1402,-62.8419 193.3184,-51.563 179.4672,-41.6888"/>
<polygon fill="#000000" stroke="#000000" points="181.316,-38.7085 171.1416,-35.7537 177.2527,-44.4085 181.316,-38.7085"/>
</g>
</g>
</svg>
